<svg id="visual" viewBox="0 0 900 600" width="900" height="600" xmlns="http://www.w3.org/2000/svg" xmlns:xlink="http://www.w3.org/1999/xlink" version="1.1"><rect x="0" y="0" width="900" height="600" fill="#001220"></rect><path d="M0 395L21.5 391.5C43 388 86 381 128.8 387.2C171.7 393.3 214.3 412.7 257.2 418.8C300 425 343 418 385.8 418.2C428.7 418.3 471.3 425.7 514.2 426.7C557 427.7 600 422.3 642.8 416.2C685.7 410 728.3 403 771.2 396C814 389 857 382 878.5 378.5L900 375L900 601L878.5 601C857 601 814 601 771.2 601C728.3 601 685.7 601 642.8 601C600 601 557 601 514.2 601C471.3 601 428.7 601 385.8 601C343 601 300 601 257.2 601C214.3 601 171.7 601 128.8 601C86 601 43 601 21.5 601L0 601Z" fill="#fa7268"></path><path d="M0 412L21.5 417.3C43 422.7 86 433.3 128.8 437.2C171.7 441 214.3 438 257.2 439.7C300 441.3 343 447.7 385.8 443.5C428.7 439.3 471.3 424.7 514.2 416.2C557 407.7 600 405.3 642.8 408.8C685.7 412.3 728.3 421.7 771.2 425.7C814 429.7 857 428.3 878.5 427.7L900 427L900 601L878.5 601C857 601 814 601 771.2 601C728.3 601 685.7 601 642.8 601C600 601 557 601 514.2 601C471.3 601 428.7 601 385.8 601C343 601 300 601 257.2 601C214.3 601 171.7 601 128.8 601C86 601 43 601 21.5 601L0 601Z" fill="#fb645a"></path><path d="M0 445L21.5 448.5C43 452 86 459 128.8 468.3C171.7 477.7 214.3 489.3 257.2 495C300 500.7 343 500.3 385.8 499.8C428.7 499.3 471.3 498.7 514.2 489.8C557 481 600 464 642.8 461C685.7 458 728.3 469 771.2 477C814 485 857 490 878.5 492.5L900 495L900 601L878.5 601C857 601 814 601 771.2 601C728.3 601 685.7 601 642.8 601C600 601 557 601 514.2 601C471.3 601 428.7 601 385.8 601C343 601 300 601 257.2 601C214.3 601 171.7 601 128.8 601C86 601 43 601 21.5 601L0 601Z" fill="#fb544b"></path><path d="M0 501L21.5 505.2C43 509.3 86 517.7 128.8 523C171.7 528.3 214.3 530.7 257.2 526C300 521.3 343 509.7 385.8 506.8C428.7 504 471.3 510 514.2 510.8C557 511.7 600 507.3 642.8 506.3C685.7 505.3 728.3 507.7 771.2 511.3C814 515 857 520 878.5 522.5L900 525L900 601L878.5 601C857 601 814 601 771.2 601C728.3 601 685.7 601 642.8 601C600 601 557 601 514.2 601C471.3 601 428.7 601 385.8 601C343 601 300 601 257.2 601C214.3 601 171.7 601 128.8 601C86 601 43 601 21.5 601L0 601Z" fill="#fa433c"></path><path d="M0 568L21.5 563.7C43 559.3 86 550.7 128.8 549.3C171.7 548 214.3 554 257.2 558C300 562 343 564 385.8 559.2C428.7 554.3 471.3 542.7 514.2 539.7C557 536.7 600 542.3 642.8 546.7C685.7 551 728.3 554 771.2 552.2C814 550.3 857 543.7 878.5 540.3L900 537L900 601L878.5 601C857 601 814 601 771.2 601C728.3 601 685.7 601 642.8 601C600 601 557 601 514.2 601C471.3 601 428.7 601 385.8 601C343 601 300 601 257.2 601C214.3 601 171.7 601 128.8 601C86 601 43 601 21.5 601L0 601Z" fill="#f92d2d"></path></svg>