<svg id="visual" viewBox="0 0 1092 600" width="1092" height="600" xmlns="http://www.w3.org/2000/svg" xmlns:xlink="http://www.w3.org/1999/xlink" version="1.1"><rect x="0" y="0" width="1092" height="600" fill="#001220"></rect><path d="M0 392L26 397.7C52 403.3 104 414.7 156 408.7C208 402.7 260 379.3 312 370.2C364 361 416 366 468 373.7C520 381.3 572 391.7 624 400C676 408.3 728 414.7 780 409.5C832 404.3 884 387.7 936 387.5C988 387.3 1040 403.7 1066 411.8L1092 420L1092 601L1066 601C1040 601 988 601 936 601C884 601 832 601 780 601C728 601 676 601 624 601C572 601 520 601 468 601C416 601 364 601 312 601C260 601 208 601 156 601C104 601 52 601 26 601L0 601Z" fill="#fa7268"></path><path d="M0 476L26 468.5C52 461 104 446 156 446.2C208 446.3 260 461.7 312 466.5C364 471.3 416 465.7 468 456.2C520 446.7 572 433.3 624 422.3C676 411.3 728 402.7 780 408.5C832 414.3 884 434.7 936 447.5C988 460.3 1040 465.7 1066 468.3L1092 471L1092 601L1066 601C1040 601 988 601 936 601C884 601 832 601 780 601C728 601 676 601 624 601C572 601 520 601 468 601C416 601 364 601 312 601C260 601 208 601 156 601C104 601 52 601 26 601L0 601Z" fill="#ef5f67"></path><path d="M0 454L26 457.7C52 461.3 104 468.7 156 467C208 465.3 260 454.7 312 454.2C364 453.7 416 463.3 468 471C520 478.7 572 484.3 624 482.8C676 481.3 728 472.7 780 468.7C832 464.7 884 465.3 936 473.2C988 481 1040 496 1066 503.5L1092 511L1092 601L1066 601C1040 601 988 601 936 601C884 601 832 601 780 601C728 601 676 601 624 601C572 601 520 601 468 601C416 601 364 601 312 601C260 601 208 601 156 601C104 601 52 601 26 601L0 601Z" fill="#e34c67"></path><path d="M0 524L26 520.8C52 517.7 104 511.3 156 509.5C208 507.7 260 510.3 312 508.7C364 507 416 501 468 504.2C520 507.3 572 519.7 624 523.2C676 526.7 728 521.3 780 515.3C832 509.3 884 502.7 936 497.3C988 492 1040 488 1066 486L1092 484L1092 601L1066 601C1040 601 988 601 936 601C884 601 832 601 780 601C728 601 676 601 624 601C572 601 520 601 468 601C416 601 364 601 312 601C260 601 208 601 156 601C104 601 52 601 26 601L0 601Z" fill="#d53867"></path><path d="M0 565L26 558.8C52 552.7 104 540.3 156 541C208 541.7 260 555.3 312 555.5C364 555.7 416 542.3 468 536C520 529.7 572 530.3 624 533.5C676 536.7 728 542.3 780 543.7C832 545 884 542 936 538.3C988 534.7 1040 530.3 1066 528.2L1092 526L1092 601L1066 601C1040 601 988 601 936 601C884 601 832 601 780 601C728 601 676 601 624 601C572 601 520 601 468 601C416 601 364 601 312 601C260 601 208 601 156 601C104 601 52 601 26 601L0 601Z" fill="#c62368"></path></svg>